<svg width="1200" height="820" viewBox="0 0 1200 820" fill="none" xmlns="http://www.w3.org/2000/svg">
  <defs>
    <linearGradient id="paper" x1="96" y1="80" x2="1010" y2="720" gradientUnits="userSpaceOnUse">
      <stop stop-color="#FFFDF8"/>
      <stop offset="0.56" stop-color="#FBF6ED"/>
      <stop offset="1" stop-color="#F8E4CC"/>
    </linearGradient>
    <linearGradient id="green" x1="210" y1="140" x2="980" y2="760" gradientUnits="userSpaceOnUse">
      <stop stop-color="#2C9B82"/>
      <stop offset="1" stop-color="#0E6B58"/>
    </linearGradient>
    <filter id="shadow" x="-12%" y="-12%" width="124%" height="136%">
      <feDropShadow dx="0" dy="26" stdDeviation="34" flood-color="#76522E" flood-opacity=".16"/>
    </filter>
    <filter id="hudShadow" x="-20%" y="-40%" width="140%" height="190%">
      <feDropShadow dx="0" dy="20" stdDeviation="22" flood-color="#153E34" flood-opacity=".24"/>
    </filter>
    <pattern id="dots" width="30" height="30" patternUnits="userSpaceOnUse">
      <circle cx="2" cy="2" r="1.5" fill="#B98250" fill-opacity=".14"/>
    </pattern>
  </defs>

  <rect width="1200" height="820" rx="42" fill="url(#paper)"/>
  <rect width="1200" height="820" rx="42" fill="url(#dots)"/>
  <circle cx="970" cy="180" r="220" fill="#F6BB7A" opacity=".28"/>

  <g filter="url(#shadow)">
    <rect x="88" y="76" width="1024" height="620" rx="30" fill="#FFFDF9"/>
    <rect x="88.5" y="76.5" width="1023" height="619" rx="29.5" stroke="#D9CAB8"/>

    <rect x="88" y="76" width="230" height="620" rx="30" fill="#EEF4F0"/>
    <path d="M318 76v620" stroke="#D9E4DE"/>
    <circle cx="126" cy="116" r="8" fill="#F07F72"/>
    <circle cx="152" cy="116" r="8" fill="#EDB85D"/>
    <circle cx="178" cy="116" r="8" fill="#72B888"/>

    <g font-family="-apple-system, BlinkMacSystemFont, 'PingFang SC', sans-serif" font-size="15" font-weight="650">
      <rect x="118" y="160" width="168" height="42" rx="12" fill="#D7E9E2"/>
      <rect x="136" y="174" width="14" height="14" rx="4" fill="#0E6B58"/>
      <text x="166" y="187" fill="#25453C">首页</text>

      <g fill="#718079">
        <circle cx="143" cy="234" r="7"/><text x="166" y="239">易错词</text>
        <circle cx="143" cy="278" r="7"/><text x="166" y="283">风格</text>
        <circle cx="143" cy="322" r="7"/><text x="166" y="327">截图 OCR</text>
        <circle cx="143" cy="366" r="7"/><text x="166" y="371">文件转写</text>
        <circle cx="143" cy="410" r="7"/><text x="166" y="415">笔记</text>
        <circle cx="143" cy="454" r="7"/><text x="166" y="459">AI Coding 助手</text>
        <circle cx="143" cy="498" r="7"/><text x="166" y="503">设置</text>
      </g>
    </g>

    <text x="360" y="140" fill="#242525" font-family="-apple-system, BlinkMacSystemFont, 'PingFang SC', sans-serif" font-size="30" font-weight="760">工作台 · Workflow</text>
    <text x="360" y="174" fill="#7A7B75" font-family="-apple-system, BlinkMacSystemFont, 'PingFang SC', sans-serif" font-size="17">启动台、历史资产、语音、截图和 AI Coding 助手都贴着当前应用完成</text>

    <g transform="translate(360 214)" font-family="-apple-system, BlinkMacSystemFont, 'PingFang SC', sans-serif">
      <g>
        <rect width="148" height="86" rx="18" fill="#FBF7F0" stroke="#E7DDD0"/>
        <text x="18" y="31" fill="#718079" font-size="13">累计资产</text>
        <text x="18" y="66" fill="#242525" font-size="31" font-weight="780">8,426</text>
      </g>
      <g transform="translate(166)">
        <rect width="148" height="86" rx="18" fill="#FBF7F0" stroke="#E7DDD0"/>
        <text x="18" y="31" fill="#718079" font-size="13">今日新增</text>
        <text x="18" y="66" fill="#242525" font-size="31" font-weight="780">1,284</text>
      </g>
      <g transform="translate(332)">
        <rect width="148" height="86" rx="18" fill="#FBF7F0" stroke="#E7DDD0"/>
        <text x="18" y="31" fill="#718079" font-size="13">来源分布</text>
        <text x="18" y="66" fill="#242525" font-size="24" font-weight="780">语音 42</text>
      </g>
      <g transform="translate(498)">
        <rect width="148" height="86" rx="18" fill="#FBF7F0" stroke="#E7DDD0"/>
        <text x="18" y="31" fill="#718079" font-size="13">可复用</text>
        <text x="18" y="66" fill="#242525" font-size="31" font-weight="780">18 条</text>
      </g>
    </g>

    <g transform="translate(360 330)" font-family="-apple-system, BlinkMacSystemFont, 'PingFang SC', sans-serif">
      <rect width="646" height="132" rx="18" fill="#FFFDF9" stroke="#E7DDD0"/>
      <text x="20" y="34" fill="#242525" font-size="16" font-weight="740">输入活跃度 · 过去 52 周</text>
      <text x="525" y="34" fill="#0E6B58" font-size="13" font-weight="720">本周 1,284 字</text>
      <g transform="translate(22 54)">
        <g fill="#E2EAE6">
          <path d="M0 0h12v12H0zM18 0h12v12H18zM36 0h12v12H36zM54 0h12v12H54zM72 0h12v12H72zM90 0h12v12H90zM108 0h12v12h-12zM126 0h12v12h-12zM144 0h12v12h-12zM162 0h12v12h-12zM180 0h12v12h-12zM198 0h12v12h-12zM216 0h12v12h-12zM234 0h12v12h-12zM252 0h12v12h-12zM270 0h12v12h-12zM288 0h12v12h-12zM306 0h12v12h-12zM324 0h12v12h-12zM342 0h12v12h-12zM360 0h12v12h-12zM378 0h12v12h-12zM396 0h12v12h-12zM414 0h12v12h-12zM432 0h12v12h-12zM450 0h12v12h-12zM468 0h12v12h-12zM486 0h12v12h-12zM504 0h12v12h-12zM522 0h12v12h-12zM540 0h12v12h-12zM558 0h12v12h-12z"/>
          <path d="M0 18h12v12H0zM18 18h12v12H18zM36 18h12v12H36zM54 18h12v12H54zM72 18h12v12H72zM90 18h12v12H90zM108 18h12v12h-12zM126 18h12v12h-12zM144 18h12v12h-12zM162 18h12v12h-12zM180 18h12v12h-12zM198 18h12v12h-12zM216 18h12v12h-12zM234 18h12v12h-12zM252 18h12v12h-12zM270 18h12v12h-12zM288 18h12v12h-12zM306 18h12v12h-12zM324 18h12v12h-12zM342 18h12v12h-12zM360 18h12v12h-12zM378 18h12v12h-12zM396 18h12v12h-12zM414 18h12v12h-12zM432 18h12v12h-12zM450 18h12v12h-12zM468 18h12v12h-12zM486 18h12v12h-12zM504 18h12v12h-12zM522 18h12v12h-12zM540 18h12v12h-12zM558 18h12v12h-12z"/>
          <path d="M0 36h12v12H0zM18 36h12v12H18zM36 36h12v12H36zM54 36h12v12H54zM72 36h12v12H72zM90 36h12v12H90zM108 36h12v12h-12zM126 36h12v12h-12zM144 36h12v12h-12zM162 36h12v12h-12zM180 36h12v12h-12zM198 36h12v12h-12zM216 36h12v12h-12zM234 36h12v12h-12zM252 36h12v12h-12zM270 36h12v12h-12zM288 36h12v12h-12zM306 36h12v12h-12zM324 36h12v12h-12zM342 36h12v12h-12zM360 36h12v12h-12zM378 36h12v12h-12zM396 36h12v12h-12zM414 36h12v12h-12zM432 36h12v12h-12zM450 36h12v12h-12zM468 36h12v12h-12zM486 36h12v12h-12zM504 36h12v12h-12zM522 36h12v12h-12zM540 36h12v12h-12zM558 36h12v12h-12z"/>
        </g>
        <rect x="396" y="18" width="12" height="12" fill="#8BCDB9"/>
        <rect x="432" y="36" width="12" height="12" fill="#4FAF94"/>
        <rect x="468" y="18" width="12" height="12" fill="#2C9B82"/>
        <rect x="504" y="36" width="12" height="12" fill="#0E6B58"/>
        <rect x="540" y="18" width="12" height="12" fill="#F2A45D"/>
        <rect x="558" y="36" width="12" height="12" fill="#0E6B58"/>
      </g>
    </g>

    <g transform="translate(360 494)" font-family="-apple-system, BlinkMacSystemFont, 'PingFang SC', sans-serif">
      <rect width="190" height="112" rx="18" fill="#F4FBF7" stroke="#CDE5DA"/>
      <text x="22" y="34" fill="#0E6B58" font-size="15" font-weight="760">易错词</text>
      <text x="22" y="65" fill="#242525" font-size="18" font-weight="720">queue win → Qwen</text>
      <text x="22" y="91" fill="#718079" font-size="13">本地确定性修正</text>

      <g transform="translate(216)">
        <rect width="190" height="112" rx="18" fill="#FFF9F0" stroke="#ECD5B8"/>
        <text x="22" y="34" fill="#B46821" font-size="15" font-weight="760">截图 OCR</text>
        <text x="22" y="65" fill="#242525" font-size="18" font-weight="720">复制 / 框选</text>
        <text x="22" y="91" fill="#718079" font-size="13">翻译、总结、朗读</text>
      </g>

      <g transform="translate(432)">
        <rect width="214" height="112" rx="18" fill="#F7FAFF" stroke="#CBD9EA"/>
        <text x="22" y="34" fill="#2C5A93" font-size="15" font-weight="760">AI Coding 助手</text>
        <text x="22" y="65" fill="#242525" font-size="18" font-weight="720">前端，改按钮状态</text>
        <text x="22" y="91" fill="#718079" font-size="13">发送给本地 Agent</text>
      </g>
    </g>
  </g>

  <g filter="url(#hudShadow)">
    <rect x="412" y="658" width="520" height="86" rx="43" fill="#173F35"/>
    <rect x="414" y="660" width="516" height="82" rx="41" stroke="white" stroke-opacity=".18" stroke-width="2"/>
    <circle cx="466" cy="701" r="27" fill="#2C9B82"/>
    <rect x="457" y="684" width="18" height="27" rx="9" fill="#D7F3E9"/>
    <path d="M452 704C452 713 458 718 466 718C474 718 480 713 480 704M466 718V726M458 726H474" stroke="#D7F3E9" stroke-width="3" stroke-linecap="round"/>
    <g fill="#77D2B7">
      <rect x="522" y="690" width="5" height="22" rx="2.5"/>
      <rect x="536" y="676" width="5" height="50" rx="2.5"/>
      <rect x="550" y="686" width="5" height="30" rx="2.5"/>
      <rect x="564" y="670" width="5" height="62" rx="2.5"/>
      <rect x="578" y="682" width="5" height="38" rx="2.5"/>
    </g>
    <text x="620" y="696" fill="white" fill-opacity=".55" font-family="-apple-system, BlinkMacSystemFont, sans-serif" font-size="11" font-weight="760" letter-spacing="2">LISTENING</text>
    <text x="620" y="720" fill="white" font-family="-apple-system, BlinkMacSystemFont, 'PingFang SC', sans-serif" font-size="16" font-weight="600">让声音和截图都回到当前现场</text>
    <rect x="858" y="674" width="48" height="54" rx="18" fill="#F2A45D"/>
    <rect x="871" y="687" width="22" height="5" rx="2.5" fill="#FFF4E8"/>
    <rect x="871" y="711" width="22" height="5" rx="2.5" fill="#FFF4E8"/>
    <rect x="879" y="687" width="5" height="29" rx="2.5" fill="#FFF4E8"/>
  </g>
</svg>
