<svg width="1600" height="720" viewBox="0 0 1600 720" fill="none" xmlns="http://www.w3.org/2000/svg">
  <defs>
    <linearGradient id="paper" x1="76" y1="28" x2="1516" y2="704" gradientUnits="userSpaceOnUse">
      <stop stop-color="#FFFDF8"/>
      <stop offset="0.52" stop-color="#FBF5EA"/>
      <stop offset="1" stop-color="#F9E7D3"/>
    </linearGradient>
    <linearGradient id="sun" x1="1100" y1="58" x2="1412" y2="512" gradientUnits="userSpaceOnUse">
      <stop stop-color="#FFD5A5" stop-opacity=".82"/>
      <stop offset="1" stop-color="#F2A45D" stop-opacity="0"/>
    </linearGradient>
    <linearGradient id="emerald" x1="1048" y1="218" x2="1310" y2="485" gradientUnits="userSpaceOnUse">
      <stop stop-color="#2C9B82"/>
      <stop offset="1" stop-color="#0E6B58"/>
    </linearGradient>
    <pattern id="dots" width="30" height="30" patternUnits="userSpaceOnUse">
      <circle cx="2" cy="2" r="1.5" fill="#B98250" fill-opacity=".16"/>
    </pattern>
    <filter id="panelShadow" x="-20%" y="-20%" width="140%" height="160%">
      <feDropShadow dx="0" dy="24" stdDeviation="24" flood-color="#76522E" flood-opacity=".14"/>
    </filter>
    <filter id="softShadow" x="-30%" y="-30%" width="160%" height="180%">
      <feDropShadow dx="0" dy="12" stdDeviation="14" flood-color="#0E6B58" flood-opacity=".16"/>
    </filter>
    <clipPath id="workspaceClip">
      <rect x="812" y="126" width="654" height="470" rx="26"/>
    </clipPath>
  </defs>

  <rect width="1600" height="720" rx="38" fill="url(#paper)"/>
  <rect width="1600" height="720" rx="38" fill="url(#dots)"/>
  <circle cx="1262" cy="186" r="284" fill="url(#sun)"/>
  <path d="M0 618C268 574 512 620 736 720H0V618Z" fill="#F6CFA8" fill-opacity=".28"/>

  <g transform="translate(108 92)">
    <g filter="url(#softShadow)">
      <path d="M56 10C30.6 10 10 30.6 10 56V102C10 127.4 30.6 148 56 148C81.4 148 102 127.4 102 102V56C102 30.6 81.4 10 56 10Z" fill="url(#emerald)"/>
      <path d="M24 112V116C24 151.3 52.7 180 88 180H94C129.3 180 158 151.3 158 116V112" stroke="#0E6B58" stroke-width="15" stroke-linecap="round"/>
      <path d="M91 180V207M61 207H121" stroke="#0E6B58" stroke-width="15" stroke-linecap="round"/>
      <rect x="-30" y="69" width="10" height="34" rx="5" fill="#2C9B82"/>
      <rect x="-12" y="55" width="10" height="62" rx="5" fill="#0E6B58"/>
      <rect x="116" y="58" width="10" height="56" rx="5" fill="#0E6B58"/>
      <rect x="134" y="74" width="10" height="26" rx="5" fill="#2C9B82"/>
      <rect x="46" y="56" width="9" height="47" rx="4.5" fill="#7BD1B7"/>
      <rect x="62" y="42" width="9" height="75" rx="4.5" fill="#B2E8D7"/>
      <rect x="78" y="62" width="9" height="36" rx="4.5" fill="#7BD1B7"/>
      <rect x="174" y="58" width="9" height="72" rx="4.5" fill="#F2A45D"/>
      <rect x="164" y="58" width="29" height="9" rx="4.5" fill="#F2A45D"/>
      <rect x="164" y="121" width="29" height="9" rx="4.5" fill="#F2A45D"/>
    </g>
  </g>

  <text x="108" y="354" fill="#0E6B58" font-family="-apple-system, BlinkMacSystemFont, 'Helvetica Neue', sans-serif" font-size="18" font-weight="750" letter-spacing="4">VOICEINPUT FOR macOS</text>
  <text x="108" y="422" fill="#242525" font-family="-apple-system, BlinkMacSystemFont, 'Helvetica Neue', sans-serif" font-size="60" font-weight="760">Hold. Speak. Done.</text>
  <text x="108" y="474" fill="#5F625D" font-family="-apple-system, BlinkMacSystemFont, 'PingFang SC', sans-serif" font-size="25" font-weight="500">按住说话 · 松手输入</text>
  <text x="108" y="517" fill="#797A75" font-family="-apple-system, BlinkMacSystemFont, 'PingFang SC', sans-serif" font-size="20">让声音自然落进光标所在的位置</text>
  <text x="108" y="550" fill="#797A75" font-family="-apple-system, BlinkMacSystemFont, 'Helvetica Neue', sans-serif" font-size="19">Voice to text, right where you type.</text>

  <g transform="translate(108 596)">
    <rect width="172" height="48" rx="24" fill="#0E6B58"/>
    <circle cx="27" cy="24" r="6" fill="#B2E8D7"/>
    <text x="46" y="31" fill="white" font-family="-apple-system, BlinkMacSystemFont, sans-serif" font-size="16" font-weight="650">Right Command</text>
    <rect x="190" width="148" height="48" rx="24" fill="#FFFDF8" stroke="#DCCBB9"/>
    <text x="214" y="31" fill="#5F625D" font-family="-apple-system, BlinkMacSystemFont, sans-serif" font-size="16" font-weight="600">macOS 14+</text>
  </g>

  <g filter="url(#panelShadow)">
    <rect x="812" y="126" width="654" height="470" rx="26" fill="#FFFDF9"/>
    <rect x="812.5" y="126.5" width="653" height="469" rx="25.5" stroke="#D8C9B8"/>
  </g>

  <g clip-path="url(#workspaceClip)">
    <rect x="812" y="126" width="164" height="470" fill="#EEF4F0"/>
    <circle cx="846" cy="160" r="7" fill="#F07F72"/>
    <circle cx="870" cy="160" r="7" fill="#EDB85D"/>
    <circle cx="894" cy="160" r="7" fill="#72B888"/>
    <rect x="836" y="194" width="116" height="38" rx="10" fill="#D7E9E2"/>
    <rect x="838" y="207" width="15" height="15" rx="4" fill="#0E6B58"/>
    <text x="865" y="219" fill="#25453C" font-family="-apple-system, BlinkMacSystemFont, 'PingFang SC', sans-serif" font-size="14" font-weight="700">首页</text>
    <g fill="#718079" font-family="-apple-system, BlinkMacSystemFont, 'PingFang SC', sans-serif" font-size="13" font-weight="550">
      <text x="865" y="271">词汇表</text>
      <text x="865" y="315">风格</text>
      <text x="865" y="359">文件转写</text>
      <text x="865" y="403">笔记</text>
      <text x="865" y="447">设置</text>
    </g>
    <g fill="#9AA7A1">
      <circle cx="846" cy="266" r="7"/>
      <circle cx="846" cy="310" r="7"/>
      <circle cx="846" cy="354" r="7"/>
      <circle cx="846" cy="398" r="7"/>
      <circle cx="846" cy="442" r="7"/>
    </g>

    <text x="1008" y="174" fill="#242525" font-family="-apple-system, BlinkMacSystemFont, 'PingFang SC', sans-serif" font-size="24" font-weight="750">首页 · Home</text>

    <g transform="translate(1008 196)">
      <g>
        <rect width="98" height="68" rx="12" fill="#FBF7F0" stroke="#E7DDD0"/>
        <text x="14" y="23" fill="#718079" font-family="-apple-system, BlinkMacSystemFont, sans-serif" font-size="10">累计字符</text>
        <text x="14" y="52" fill="#242525" font-family="-apple-system, BlinkMacSystemFont, sans-serif" font-size="24" font-weight="750">8,426</text>
      </g>
      <g transform="translate(110)">
        <rect width="98" height="68" rx="12" fill="#FBF7F0" stroke="#E7DDD0"/>
        <text x="14" y="23" fill="#718079" font-family="-apple-system, BlinkMacSystemFont, sans-serif" font-size="10">今日字符</text>
        <text x="14" y="52" fill="#242525" font-family="-apple-system, BlinkMacSystemFont, sans-serif" font-size="24" font-weight="750">1,284</text>
      </g>
      <g transform="translate(220)">
        <rect width="98" height="68" rx="12" fill="#FBF7F0" stroke="#E7DDD0"/>
        <text x="14" y="23" fill="#718079" font-family="-apple-system, BlinkMacSystemFont, sans-serif" font-size="10">平均字/分钟</text>
        <text x="14" y="52" fill="#242525" font-family="-apple-system, BlinkMacSystemFont, sans-serif" font-size="24" font-weight="750">126</text>
      </g>
      <g transform="translate(330)">
        <rect width="98" height="68" rx="12" fill="#FBF7F0" stroke="#E7DDD0"/>
        <text x="14" y="23" fill="#718079" font-family="-apple-system, BlinkMacSystemFont, sans-serif" font-size="10">连续使用</text>
        <text x="14" y="52" fill="#242525" font-family="-apple-system, BlinkMacSystemFont, sans-serif" font-size="24" font-weight="750">18 天</text>
      </g>
    </g>

    <g transform="translate(1008 282)">
      <rect width="428" height="116" rx="14" fill="#FFFDF9" stroke="#E7DDD0"/>
      <text x="16" y="27" fill="#242525" font-family="-apple-system, BlinkMacSystemFont, 'PingFang SC', sans-serif" font-size="13" font-weight="700">输入活跃度 · 过去 52 周</text>
      <text x="348" y="27" fill="#0E6B58" font-family="-apple-system, BlinkMacSystemFont, sans-serif" font-size="11" font-weight="700">本周 1,284 字</text>
      <g transform="translate(17 42)">
        <g fill="#E2EAE6">
          <path d="M0 0h9v9H0zM13 0h9v9h-9zM26 0h9v9h-9zM39 0h9v9h-9zM52 0h9v9h-9zM65 0h9v9h-9zM78 0h9v9h-9zM91 0h9v9h-9zM104 0h9v9h-9zM117 0h9v9h-9zM130 0h9v9h-9zM143 0h9v9h-9zM156 0h9v9h-9zM169 0h9v9h-9zM182 0h9v9h-9zM195 0h9v9h-9zM208 0h9v9h-9zM221 0h9v9h-9zM234 0h9v9h-9zM247 0h9v9h-9zM260 0h9v9h-9zM273 0h9v9h-9zM286 0h9v9h-9zM299 0h9v9h-9zM312 0h9v9h-9zM325 0h9v9h-9zM338 0h9v9h-9zM351 0h9v9h-9zM364 0h9v9h-9zM377 0h9v9h-9z"/>
          <path d="M0 13h9v9H0zM13 13h9v9h-9zM26 13h9v9h-9zM39 13h9v9h-9zM52 13h9v9h-9zM65 13h9v9h-9zM78 13h9v9h-9zM91 13h9v9h-9zM104 13h9v9h-9zM117 13h9v9h-9zM130 13h9v9h-9zM143 13h9v9h-9zM156 13h9v9h-9zM169 13h9v9h-9zM182 13h9v9h-9zM195 13h9v9h-9zM208 13h9v9h-9zM221 13h9v9h-9zM234 13h9v9h-9zM247 13h9v9h-9zM260 13h9v9h-9zM273 13h9v9h-9zM286 13h9v9h-9zM299 13h9v9h-9zM312 13h9v9h-9zM325 13h9v9h-9zM338 13h9v9h-9zM351 13h9v9h-9zM364 13h9v9h-9zM377 13h9v9h-9z"/>
          <path d="M0 26h9v9H0zM13 26h9v9h-9zM26 26h9v9h-9zM39 26h9v9h-9zM52 26h9v9h-9zM65 26h9v9h-9zM78 26h9v9h-9zM91 26h9v9h-9zM104 26h9v9h-9zM117 26h9v9h-9zM130 26h9v9h-9zM143 26h9v9h-9zM156 26h9v9h-9zM169 26h9v9h-9zM182 26h9v9h-9zM195 26h9v9h-9zM208 26h9v9h-9zM221 26h9v9h-9zM234 26h9v9h-9zM247 26h9v9h-9zM260 26h9v9h-9zM273 26h9v9h-9zM286 26h9v9h-9zM299 26h9v9h-9zM312 26h9v9h-9zM325 26h9v9h-9zM338 26h9v9h-9zM351 26h9v9h-9zM364 26h9v9h-9zM377 26h9v9h-9z"/>
          <path d="M0 39h9v9H0zM13 39h9v9h-9zM26 39h9v9h-9zM39 39h9v9h-9zM52 39h9v9h-9zM65 39h9v9h-9zM78 39h9v9h-9zM91 39h9v9h-9zM104 39h9v9h-9zM117 39h9v9h-9zM130 39h9v9h-9zM143 39h9v9h-9zM156 39h9v9h-9zM169 39h9v9h-9zM182 39h9v9h-9zM195 39h9v9h-9zM208 39h9v9h-9zM221 39h9v9h-9zM234 39h9v9h-9zM247 39h9v9h-9zM260 39h9v9h-9zM273 39h9v9h-9zM286 39h9v9h-9zM299 39h9v9h-9zM312 39h9v9h-9zM325 39h9v9h-9zM338 39h9v9h-9zM351 39h9v9h-9zM364 39h9v9h-9zM377 39h9v9h-9z"/>
        </g>
        <rect x="286" y="13" width="9" height="9" fill="#8BCDB9"/>
        <rect x="312" y="26" width="9" height="9" fill="#4FAF94"/>
        <rect x="338" y="13" width="9" height="9" fill="#2C9B82"/>
        <rect x="351" y="26" width="9" height="9" fill="#0E6B58"/>
        <rect x="364" y="39" width="9" height="9" fill="#F2A45D"/>
        <rect x="377" y="13" width="9" height="9" fill="#0E6B58"/>
      </g>
    </g>

    <g transform="translate(1008 414)">
      <text x="0" y="16" fill="#242525" font-family="-apple-system, BlinkMacSystemFont, 'PingFang SC', sans-serif" font-size="14" font-weight="700">历史 · Recent input</text>
      <g transform="translate(0 30)">
        <rect width="428" height="52" rx="11" fill="#FBF7F0" stroke="#E7DDD0"/>
        <text x="14" y="22" fill="#30312F" font-family="-apple-system, BlinkMacSystemFont, 'PingFang SC', sans-serif" font-size="11" font-weight="650">把首页的输入活跃度做得更丰富一些</text>
        <text x="14" y="39" fill="#8B8B84" font-family="-apple-system, BlinkMacSystemFont, sans-serif" font-size="9">VoxFlow · 42 字 · 126 字/分钟</text>
        <circle cx="402" cy="26" r="8" fill="#DCECE6"/>
      </g>
      <g transform="translate(0 90)">
        <rect width="428" height="52" rx="11" fill="#FBF7F0" stroke="#E7DDD0"/>
        <text x="14" y="22" fill="#30312F" font-family="-apple-system, BlinkMacSystemFont, sans-serif" font-size="11" font-weight="650">Draft the release notes and keep the original tone.</text>
        <text x="14" y="39" fill="#8B8B84" font-family="-apple-system, BlinkMacSystemFont, sans-serif" font-size="9">VoxFlow · 51 chars · 118 CPM</text>
        <circle cx="402" cy="26" r="8" fill="#F6D4B1"/>
      </g>
    </g>
  </g>

  <g filter="url(#softShadow)">
    <rect x="724" y="534" width="516" height="92" rx="46" fill="#173F35"/>
    <rect x="725" y="535" width="514" height="90" rx="45" stroke="white" stroke-opacity=".18" stroke-width="2"/>
    <circle cx="772" cy="580" r="26" fill="#2C9B82"/>
    <rect x="763" y="563" width="18" height="27" rx="9" fill="#D7F3E9"/>
    <path d="M758 583C758 592 764 597 772 597C780 597 786 592 786 583M772 597V604M764 604H780" stroke="#D7F3E9" stroke-width="3" stroke-linecap="round"/>
    <g fill="#77D2B7">
      <rect x="822" y="570" width="5" height="20" rx="2.5"/>
      <rect x="834" y="558" width="5" height="44" rx="2.5"/>
      <rect x="846" y="565" width="5" height="30" rx="2.5"/>
      <rect x="858" y="551" width="5" height="58" rx="2.5"/>
      <rect x="870" y="562" width="5" height="36" rx="2.5"/>
    </g>
    <text x="906" y="576" fill="white" fill-opacity=".55" font-family="-apple-system, BlinkMacSystemFont, sans-serif" font-size="11" font-weight="700" letter-spacing="2">LISTENING</text>
    <text x="906" y="600" fill="white" font-family="-apple-system, BlinkMacSystemFont, 'PingFang SC', sans-serif" font-size="16" font-weight="550">让声音自然落进光标所在的位置</text>
    <rect x="1172" y="553" width="44" height="54" rx="18" fill="#F2A45D"/>
    <rect x="1185" y="565" width="18" height="5" rx="2.5" fill="#FFF4E8"/>
    <rect x="1185" y="590" width="18" height="5" rx="2.5" fill="#FFF4E8"/>
    <rect x="1192" y="565" width="5" height="30" rx="2.5" fill="#FFF4E8"/>
  </g>
</svg>
